<svg width="15" height="221" viewBox="0 0 15 221" fill="none" xmlns="http://www.w3.org/2000/svg">
<g clip-path="url(#clip0_1_245)">
<g clip-path="url(#clip1_1_245)">
<path fill-rule="evenodd" clip-rule="evenodd" d="M9.04192 9.13373C4.45775 9.04152 0.76997 5.29656 0.76997 0.690296C0.76997 0.646724 0.770304 0.60323 0.770959 0.559814L-0.988464 0.560079V220.457L0.772036 220.456C0.770612 220.393 0.769889 220.328 0.769889 220.264C0.769889 215.658 4.45772 211.913 9.04192 211.821V201.261C4.45772 201.169 0.769889 197.424 0.769889 192.818C0.769889 188.211 4.45772 184.466 9.04192 184.374V173.814C4.45772 173.722 0.769889 169.977 0.769889 165.371C0.769889 160.765 4.45772 157.019 9.04192 156.927V146.368C4.45772 146.275 0.769889 142.531 0.769889 137.924C0.769889 133.318 4.45772 129.573 9.04192 129.48V118.92C4.45772 118.828 0.769889 115.084 0.769889 110.477C0.769889 105.871 4.45772 102.126 9.04192 102.034V91.474C4.45772 91.3817 0.769889 87.637 0.769889 83.0311C0.769889 78.4244 4.45772 74.6798 9.04192 74.5875V64.0272C4.45772 63.9351 0.769889 60.1901 0.769889 55.5838C0.769889 50.9775 4.45772 47.2326 9.04192 47.1404V36.5806C4.45772 36.4884 0.769889 32.7435 0.769889 28.1372C0.769889 23.531 4.45772 19.786 9.04192 19.6938V9.13373Z" fill="#CCCCCC"/>
</g>
</g>
<defs>
<clipPath id="clip0_1_245">
<rect width="15" height="220" fill="white" transform="translate(0 0.559814)"/>
</clipPath>
<clipPath id="clip1_1_245">
<rect width="10.6991" height="220" fill="white" transform="translate(-1 0.559814)"/>
</clipPath>
</defs>
</svg>
