<svg width="40" height="41" viewBox="0 0 40 41" fill="none" xmlns="http://www.w3.org/2000/svg">
<path fill-rule="evenodd" clip-rule="evenodd" d="M35.885 29.3642C35.7689 29.4806 35.631 29.573 35.4791 29.636C35.3272 29.699 35.1644 29.7314 35 29.7314C34.8356 29.7314 34.6728 29.699 34.5209 29.636C34.3691 29.573 34.2311 29.4806 34.115 29.3642L20 15.2467L5.88503 29.3642C5.7688 29.4804 5.63083 29.5726 5.47898 29.6355C5.32714 29.6984 5.16438 29.7308 5.00002 29.7308C4.83566 29.7308 4.67291 29.6984 4.52106 29.6355C4.36922 29.5726 4.23124 29.4804 4.11502 29.3642C3.99881 29.248 3.90661 29.11 3.84372 28.9582C3.78082 28.8063 3.74845 28.6436 3.74845 28.4792C3.74845 28.3149 3.78082 28.1521 3.84372 28.0003C3.90661 27.8484 3.99881 27.7104 4.11502 27.5942L19.115 12.5942C19.2311 12.4778 19.3691 12.3854 19.5209 12.3224C19.6728 12.2594 19.8356 12.227 20 12.227C20.1644 12.227 20.3272 12.2594 20.4791 12.3224C20.631 12.3854 20.7689 12.4778 20.885 12.5942L35.885 27.5942C36.0014 27.7103 36.0938 27.8483 36.1568 28.0001C36.2198 28.152 36.2523 28.3148 36.2523 28.4792C36.2523 28.6436 36.2198 28.8064 36.1568 28.9583C36.0938 29.1102 36.0014 29.2481 35.885 29.3642Z" fill="#323232"/>
</svg>
