<svg width="789" height="249" viewBox="0 0 789 249" fill="none" xmlns="http://www.w3.org/2000/svg">
<path d="M57.2619 7.46835H66.954V32.2999C66.9422 34.6581 66.3467 36.7333 65.1676 38.5255C64.0003 40.306 62.385 41.6973 60.3216 42.6995C58.27 43.6899 55.9059 44.1852 53.2294 44.1852C50.9066 44.1852 48.7842 43.7843 46.8623 42.9825C44.9404 42.1689 43.4076 40.8955 42.2638 39.1622C41.1201 37.4172 40.5542 35.1533 40.566 32.3707H50.3996C50.4349 33.2786 50.5882 34.045 50.8594 34.6699C51.1424 35.2948 51.5315 35.7665 52.0267 36.0848C52.5337 36.3914 53.1468 36.5447 53.8661 36.5447C54.5971 36.5447 55.2102 36.3855 55.7055 36.0671C56.2125 35.7488 56.5957 35.2771 56.8551 34.6522C57.1145 34.0155 57.2501 33.2314 57.2619 32.2999V7.46835ZM106.704 25.5791C106.704 29.6116 105.92 33.0133 104.352 35.7842C102.784 38.5432 100.667 40.6361 98.0023 42.0628C95.3376 43.4777 92.3663 44.1852 89.0884 44.1852C85.7869 44.1852 82.8039 43.4718 80.1391 42.0451C77.4862 40.6066 75.3756 38.5078 73.8074 35.7488C72.251 32.9779 71.4728 29.588 71.4728 25.5791C71.4728 21.5467 72.251 18.1509 73.8074 15.3918C75.3756 12.621 77.4862 10.5281 80.1391 9.11318C82.8039 7.68648 85.7869 6.97313 89.0884 6.97313C92.3663 6.97313 95.3376 7.68648 98.0023 9.11318C100.667 10.5281 102.784 12.621 104.352 15.3918C105.92 18.1509 106.704 21.5467 106.704 25.5791ZM96.5874 25.5791C96.5874 23.4096 96.2985 21.582 95.7208 20.0964C95.1548 18.5989 94.3118 17.467 93.1916 16.7006C92.0833 15.9224 90.7155 15.5333 89.0884 15.5333C87.4612 15.5333 86.0876 15.9224 84.9675 16.7006C83.8591 17.467 83.0161 18.5989 82.4383 20.0964C81.8724 21.582 81.5894 23.4096 81.5894 25.5791C81.5894 27.7487 81.8724 29.5821 82.4383 31.0796C83.0161 32.5652 83.8591 33.6972 84.9675 34.4754C86.0876 35.2418 87.4612 35.625 89.0884 35.625C90.7155 35.625 92.0833 35.2418 93.1916 34.4754C94.3118 33.6972 95.1548 32.5652 95.7208 31.0796C96.2985 29.5821 96.5874 27.7487 96.5874 25.5791ZM121.087 7.46835V43.6899H111.254V7.46835H121.087ZM157.088 7.46835V43.6899H148.881L135.794 24.6595H135.581V43.6899H125.748V7.46835H134.096L146.971 26.4281H147.254V7.46835H157.088ZM193.097 7.46835H202.931V30.6728C202.931 33.4319 202.271 35.8195 200.95 37.8358C199.641 39.8402 197.814 41.3907 195.467 42.4873C193.121 43.572 190.397 44.1144 187.296 44.1144C184.172 44.1144 181.436 43.572 179.09 42.4873C176.743 41.3907 174.916 39.8402 173.607 37.8358C172.31 35.8195 171.661 33.4319 171.661 30.6728V7.46835H181.495V29.8239C181.495 30.944 181.743 31.9462 182.238 32.8305C182.733 33.7031 183.417 34.3869 184.289 34.8822C185.174 35.3774 186.176 35.625 187.296 35.625C188.428 35.625 189.43 35.3774 190.303 34.8822C191.175 34.3869 191.859 33.7031 192.354 32.8305C192.85 31.9462 193.097 30.944 193.097 29.8239V7.46835ZM227.13 18.7876C227.036 17.6085 226.594 16.6888 225.804 16.0285C225.025 15.3682 223.84 15.0381 222.249 15.0381C221.235 15.0381 220.403 15.1619 219.755 15.4095C219.118 15.6453 218.647 15.9696 218.34 16.3823C218.033 16.7949 217.874 17.2666 217.863 17.7972C217.839 18.2334 217.916 18.6284 218.092 18.9821C218.281 19.3241 218.576 19.6365 218.977 19.9195C219.378 20.1907 219.891 20.4383 220.515 20.6623C221.14 20.8864 221.883 21.0868 222.744 21.2637L225.715 21.9004C227.72 22.3249 229.435 22.8849 230.862 23.5806C232.289 24.2763 233.456 25.0957 234.364 26.039C235.272 26.9705 235.938 28.0199 236.362 29.1872C236.799 30.3545 237.023 31.6279 237.034 33.0074C237.023 35.3892 236.427 37.4054 235.248 39.0561C234.069 40.7068 232.383 41.9626 230.19 42.8233C228.009 43.684 225.385 44.1144 222.319 44.1144C219.171 44.1144 216.424 43.6487 214.078 42.7172C211.743 41.7857 209.927 40.3531 208.63 38.4194C207.345 36.4739 206.697 33.986 206.685 30.9558H216.023C216.082 32.0641 216.359 32.9956 216.854 33.7502C217.35 34.5048 218.045 35.0767 218.941 35.4658C219.849 35.8549 220.928 36.0494 222.178 36.0494C223.227 36.0494 224.106 35.9197 224.813 35.6604C225.521 35.401 226.057 35.0413 226.423 34.5815C226.788 34.1216 226.977 33.5969 226.989 33.0074C226.977 32.4532 226.794 31.9698 226.44 31.5571C226.098 31.1327 225.532 30.7553 224.742 30.4252C223.953 30.0833 222.885 29.7649 221.541 29.4701L217.933 28.6919C214.726 27.9963 212.197 26.8349 210.346 25.2077C208.506 23.5688 207.593 21.3344 207.604 18.5046C207.593 16.2054 208.206 14.195 209.444 12.4736C210.694 10.7403 212.421 9.39026 214.626 8.42341C216.843 7.45656 219.384 6.97313 222.249 6.97313C225.173 6.97313 227.702 7.46245 229.836 8.4411C231.97 9.41974 233.615 10.7993 234.771 12.5797C235.938 14.3483 236.527 16.4176 236.539 18.7876H227.13ZM260.106 43.6899H249.495L261.45 7.46835H274.892L286.848 43.6899H276.236L268.313 17.4434H268.03L260.106 43.6899ZM258.125 29.3994H278.076V36.7569H258.125V29.3994ZM284.774 15.3918V7.46835H316.256V15.3918H305.361V43.6899H295.669V15.3918H284.774Z" fill="#212529"/>
<g clip-path="url(#clip0_1_136)">
<g clip-path="url(#clip1_1_136)">
<g clip-path="url(#clip2_1_136)">
<mask id="mask0_1_136" style="mask-type:luminance" maskUnits="userSpaceOnUse" x="40" y="59" width="709" height="174">
<path d="M748.636 59.2107H40.0234V232.085H748.636V59.2107Z" fill="white"/>
</mask>
<g mask="url(#mask0_1_136)">
<path d="M41.1538 64.9688H57.3193V109.259H65.2472V64.9688H90.4788V181.51H65.2472V133.018H57.3193V181.51H41.1538V64.9688Z" fill="#323232"/>
<path d="M187.31 123.163C187.31 160.698 174.922 184.257 138.867 184.257C106.095 184.257 93.8545 161.105 93.8545 122.9C93.8545 87.0422 106.095 63.3955 140.4 63.3955C174.705 63.3955 187.31 87.4655 187.31 123.171V123.163ZM128.052 122.676C128.052 149.549 129.561 157.328 136.978 157.328C144.395 157.328 146.795 149.852 146.795 122.389C146.795 96.9449 144.481 90.4044 136.893 90.4044C129.94 90.4044 128.044 96.7692 128.044 122.668L128.052 122.676Z" fill="#323232"/>
<path d="M214.725 95.212H186.319V64.9768H292.997V95.212H260.86V181.517H214.725V95.212Z" fill="#323232"/>
<path d="M340.619 145.764C341.726 150.675 344.559 156.266 353.069 156.266C359.533 156.266 363.001 153.558 363.001 149.485C363.001 145.412 361.895 142.194 343.77 138.64C300.267 130.167 296.009 113.061 296.009 97.8154C296.009 75.7978 314.288 59.1948 351.342 59.1948C385.229 59.1948 408.665 72.2441 410.399 96.1144H363.791C362.846 91.0273 360.323 87.138 352.914 87.138C347.555 87.138 344.877 89.3422 344.877 92.7362C344.877 96.8012 349.608 98.8296 361.91 101.209C402.579 108.836 413.449 123.738 413.449 142.545C413.449 168.468 391.067 184.552 354.02 184.552C313.669 184.552 294.329 167.614 291.023 145.764H340.627H340.619Z" fill="#323232"/>
<path d="M457.107 162.71L453.956 181.517H408.912L440.284 64.9768H502.762L530.796 181.517H486.31L482.919 162.71H457.083H457.092H457.107ZM476.888 131.373C475.363 122.301 471.6 104.779 469.718 91.9058H470.269C468.371 105.29 465.468 119.737 463.378 131.373H476.904H476.896H476.888Z" fill="#323232"/>
<path d="M569.243 64.9688V147.553C569.243 153.926 575.042 157.304 580.3 157.304C585.208 157.304 591.038 154.101 591.038 147.553V64.9688H628.781V142.849C628.781 173.372 605.082 184.823 578.465 184.823C551.847 184.823 527.591 172.421 527.591 142.601V64.9688H569.243Z" fill="#323232"/>
<path d="M706.496 141.411V142.697C706.496 165.226 699.737 184.832 673.267 184.832C649.421 184.832 633.952 170.84 633.952 127.787V120.272C633.952 75.8857 653.068 62.0459 673.995 62.0459C699.93 62.0459 706.496 83.5763 706.496 103.398V104.899H676.294V102.99C676.294 92.896 674.916 89.0308 672.562 89.0308C670.642 89.0308 667.6 93.1117 667.6 119.25V127.691C667.6 155.204 670.224 158.908 672.516 158.908C675.04 158.908 676.425 154.62 676.425 143.44V141.411H706.504H706.496Z" fill="#323232"/>
<path d="M744.695 129.504H730.954V159.316H748.636L745.803 181.51H710.956V64.9688H745.648V87.162H730.954V107.327H744.695V129.52V129.504Z" fill="#323232"/>
<path d="M302.667 224.37V200.253H306.298V209.756C307.444 207.991 309.163 207.128 311.447 207.113C313.397 207.113 314.907 207.712 315.968 208.902C317.036 210.091 317.57 211.752 317.57 213.876V224.363H313.94V214.396C313.94 211.641 312.747 210.267 310.378 210.267C309.186 210.267 308.21 210.642 307.452 211.369C306.693 212.112 306.306 213.158 306.306 214.499V224.354H302.675L302.66 224.378L302.667 224.37Z" fill="#323232"/>
<path d="M334.735 222.302C333.125 223.963 331.089 224.794 328.65 224.794C326.211 224.794 324.175 223.963 322.541 222.302C320.915 220.641 320.103 218.517 320.103 215.953C320.103 213.389 320.923 211.273 322.541 209.628C324.167 207.975 326.195 207.145 328.65 207.145C331.104 207.145 333.125 207.975 334.735 209.628C336.345 211.282 337.151 213.389 337.151 215.953C337.151 218.517 336.345 220.641 334.735 222.302ZM325.197 220.178C326.064 221.224 327.202 221.743 328.65 221.743C330.098 221.743 331.235 221.224 332.103 220.178C332.97 219.132 333.403 217.718 333.403 215.945C333.403 214.172 332.97 212.79 332.095 211.752C331.22 210.706 330.074 210.187 328.665 210.187C327.257 210.187 326.079 210.698 325.212 211.728C324.345 212.759 323.911 214.164 323.911 215.945C323.911 217.726 324.345 219.132 325.212 220.178H325.197Z" fill="#323232"/>
<path d="M345.567 224.794C342.221 224.794 340.549 222.949 340.549 219.252V210.714H338.025V207.552H340.65L341.494 202.593H344.227V207.552H350.723V210.714H344.227V219.147C344.227 220.697 344.777 221.472 345.875 221.472C346.914 221.472 347.834 220.506 348.663 218.557L351.489 220.042C350.096 223.205 348.121 224.794 345.574 224.794H345.567Z" fill="#323232"/>
<path d="M352.65 232.077C351.039 232.077 349.7 231.622 348.647 230.687L349.995 227.733C350.645 228.515 351.357 228.915 352.108 228.915C353.123 228.915 353.626 228.244 353.626 226.902V207.544H357.257V226.974C357.257 228.771 356.823 230.073 355.956 230.879C355.089 231.67 353.982 232.069 352.65 232.085V232.069V232.077ZM355.437 204.709C354.833 204.733 354.261 204.51 353.827 204.086C353.626 203.887 353.455 203.638 353.347 203.351C353.239 203.079 353.176 202.784 353.192 202.48C353.192 202.185 353.239 201.881 353.347 201.602C353.455 201.331 353.626 201.067 353.827 200.867C354.268 200.46 354.841 200.22 355.437 200.22C356.033 200.22 356.607 200.444 357.048 200.867C357.265 201.075 357.435 201.323 357.543 201.602C357.651 201.881 357.714 202.185 357.698 202.48C357.698 202.777 357.651 203.079 357.527 203.335C357.404 203.59 357.249 203.854 357.032 204.054C356.815 204.261 356.576 204.429 356.297 204.541C356.018 204.652 355.732 204.7 355.43 204.7L355.437 204.709Z" fill="#323232"/>
<path d="M366.276 224.794C364.411 224.794 362.909 224.306 361.755 223.356C360.601 222.398 360.02 221.112 360.02 219.483C360.02 218.006 360.625 216.752 361.824 215.722C363.024 214.691 364.534 214.18 366.346 214.18C368.157 214.18 369.776 214.787 371.061 216.017V213.972C371.061 212.766 370.759 211.84 370.17 211.177C369.582 210.522 368.731 210.187 367.631 210.187C365.409 210.187 364.031 211.353 363.497 213.686L360.168 212.95C360.609 211.153 361.499 209.724 362.823 208.686C364.147 207.64 365.796 207.121 367.771 207.121C369.923 207.121 371.618 207.703 372.873 208.87C374.111 210.035 374.739 211.745 374.739 213.981V224.354H371.201V222.23C370.008 223.915 368.375 224.761 366.292 224.761L366.276 224.785V224.794ZM366.95 222.014C368.561 222.014 369.931 221.184 371.054 219.523V219.004C369.938 217.615 368.561 216.92 366.95 216.92C366.013 216.92 365.239 217.159 364.666 217.63C364.388 217.838 364.17 218.118 364.015 218.437C363.86 218.756 363.783 219.108 363.783 219.451C363.783 219.794 363.845 220.161 364 220.482C364.147 220.801 364.372 221.088 364.65 221.304C365.231 221.775 365.982 222.014 366.958 222.014L366.942 222.031L366.95 222.014Z" fill="#323232"/>
<path d="M378.253 224.37V207.544H381.791V210.459C382.698 208.334 384.23 207.272 386.437 207.272C387.738 207.272 388.821 207.703 389.657 208.59C390.51 209.468 390.935 210.65 390.935 212.128C390.935 213.006 390.78 213.893 390.501 214.731L387.172 214.379C387.242 213.924 387.281 213.461 387.304 212.991C387.304 211.249 386.607 210.387 385.221 210.387C384.284 210.387 383.487 210.898 382.853 211.928C382.218 212.958 381.892 214.308 381.892 216.009V224.37H378.261H378.253Z" fill="#323232"/>
<path d="M279.983 210.131C282.693 208.582 286.393 206.457 286.393 200.269H281.903C281.903 203.727 280.269 204.661 277.799 206.09C275.09 207.64 271.389 209.764 271.389 215.954H275.879C275.879 212.495 277.513 211.561 279.983 210.131Z" fill="#FF3C00"/>
<path d="M287.74 208.702C287.74 212.16 286.106 213.094 283.637 214.523C280.927 216.073 277.227 218.197 277.227 224.387H281.717C281.717 220.928 283.351 219.994 285.821 218.565C288.53 217.016 292.231 214.891 292.231 208.702H287.74Z" fill="#FF3C00"/>
<path d="M46.2946 206.457H51.0792L57.3503 224.346H53.4637L52.3489 221H45.0249L43.91 224.346H40.0234L46.2946 206.457ZM51.3966 218.157L48.7953 210.363H48.5707L45.9694 218.157H51.3966Z" fill="#323232"/>
<path d="M64.3801 215.402C64.3801 209.628 67.5544 206.226 72.5791 206.226C76.3727 206.226 79.4154 208.223 79.7637 212.663H76.1482C75.6526 210.443 74.2436 209.516 72.4551 209.516C69.4358 209.516 68.1661 212.096 68.1661 215.394C68.1661 218.692 69.4048 221.295 72.4551 221.295C74.2358 221.295 75.6526 220.377 76.1482 218.126H79.7637C79.4154 222.598 76.3727 224.594 72.5326 224.594C67.5544 224.594 64.3801 221.192 64.3801 215.394V215.402Z" fill="#323232"/>
<path d="M81.2888 215.402C81.2888 209.908 84.556 206.226 89.5651 206.226C94.5743 206.226 97.8414 209.908 97.8414 215.402C97.8414 220.897 94.5743 224.602 89.5651 224.602C84.556 224.602 81.2888 220.873 81.2888 215.402ZM89.5651 221.304C92.4142 221.304 94.0246 218.956 94.0246 215.402C94.0246 211.848 92.4142 209.525 89.5651 209.525C86.716 209.525 85.1057 211.824 85.1057 215.402C85.1057 218.98 86.716 221.304 89.5651 221.304Z" fill="#323232"/>
<path d="M100.18 206.457H104.043L111.026 218.213H111.104V206.457H114.82V224.346H110.81L103.973 212.823H103.896V224.346H100.18V206.457Z" fill="#323232"/>
<path d="M117.801 206.457H129.267V209.78H121.509V213.972H127.927V217.063H121.509V224.346H117.793V206.457H117.801Z" fill="#323232"/>
<path d="M131.048 206.457H142.885V209.78H134.756V213.789H142.142V216.776H134.756V221.016H143.133V224.339H131.048V206.45V206.457Z" fill="#323232"/>
<path d="M145.51 206.457H152.524C157.131 206.457 159.136 208.933 159.136 212.439C159.136 214.971 158.067 217.015 155.668 217.91L159.307 224.346H155.637L152.339 218.389H149.218V224.346H145.502V206.457H145.51ZM152.4 215.067C154.429 215.067 155.327 214.02 155.327 212.431C155.327 210.842 154.436 209.772 152.4 209.772H149.226V215.059H152.4V215.067Z" fill="#323232"/>
<path d="M161.482 206.457H173.32V209.78H165.19V213.789H172.576V216.776H165.19V221.016H173.567V224.339H161.482V206.45V206.457Z" fill="#323232"/>
<path d="M175.952 206.457H179.815L186.799 218.213H186.876V206.457H190.593V224.346H186.581L179.745 212.823H179.668V224.346H175.952V206.457Z" fill="#323232"/>
<path d="M192.977 215.402C192.977 209.628 196.151 206.226 201.175 206.226C204.969 206.226 208.012 208.223 208.36 212.663H204.745C204.25 210.443 202.84 209.516 201.051 209.516C198.032 209.516 196.763 212.096 196.763 215.394C196.763 218.692 198.001 221.295 201.051 221.295C202.832 221.295 204.25 220.377 204.745 218.126H208.36C208.012 222.598 204.969 224.594 201.129 224.594C196.151 224.594 192.977 221.192 192.977 215.394V215.402Z" fill="#323232"/>
<path d="M210.614 206.457H222.451V209.78H214.322V213.789H221.707V216.776H214.322V221.016H222.698V224.339H210.614V206.45V206.457Z" fill="#323232"/>
<path d="M231.354 206.457H238.392C242.255 206.457 244.012 208.223 244.012 210.93C244.012 212.871 243.146 213.972 241.512 214.508C244.09 215.226 245.205 216.887 245.205 219.108C245.205 221.999 243.27 224.346 238.686 224.346H231.354V206.457ZM238.245 213.717C239.359 213.717 240.304 213.102 240.304 211.649C240.304 210.195 239.359 209.684 238.245 209.684H235.071V213.725H238.245V213.717ZM238.57 221.128C240.653 221.128 241.373 219.978 241.373 218.677C241.373 217.375 240.653 216.145 238.57 216.145H235.079V221.128H238.57Z" fill="#323232"/>
<path d="M251.468 217.774L245.198 206.457H249.409L253.373 214.077L257.361 206.457H261.572L255.301 217.774V224.339H251.461V217.774H251.468Z" fill="#323232"/>
</g>
</g>
</g>
</g>
<defs>
<clipPath id="clip0_1_136">
<rect width="708.66" height="173.73" fill="white" transform="translate(40 58.6899)"/>
</clipPath>
<clipPath id="clip1_1_136">
<rect width="708.66" height="173.73" fill="white" transform="translate(40 58.6899)"/>
</clipPath>
<clipPath id="clip2_1_136">
<rect width="708.613" height="173.73" fill="white" transform="translate(40.0234 58.6899)"/>
</clipPath>
</defs>
</svg>
