<svg width="624" height="256" viewBox="0 0 624 256" fill="none" xmlns="http://www.w3.org/2000/svg">
<g clip-path="url(#clip0_1_320)">
<g clip-path="url(#clip1_1_320)">
<g clip-path="url(#clip2_1_320)">
<mask id="mask0_1_320" style="mask-type:luminance" maskUnits="userSpaceOnUse" x="0" y="0" width="624" height="256">
<path d="M623.996 0.949707H0.00390625V255.06H623.996V0.949707Z" fill="white"/>
</mask>
<g mask="url(#mask0_1_320)">
<path d="M623.996 0.949707H0.00390625V255.06H623.996V0.949707Z" fill="#EAEAEA"/>
<path d="M502.581 125.357L502.569 125.364L502.556 125.37C476.946 139.957 461.648 155.475 452.829 173.071C444.032 190.62 441.852 209.903 441.852 231.642V243.687V246.63H444.795H616.76H619.704V243.687V192.833V189.89H616.76H519.358C520.029 187.48 521.781 184.589 525.737 180.832C531.276 175.572 540.793 168.947 556.616 159.951C557.575 159.445 558.562 158.928 559.574 158.398C583.665 145.777 621.711 125.845 621.711 76.7399C621.711 55.129 614.339 36.6958 599.413 23.708C584.539 10.7646 562.522 3.53857 533.789 3.53857C501.438 3.53857 479.157 12.833 464.988 27.8387C450.852 42.8084 445.198 63.0317 445.198 84.1003V91.4607V94.404H448.141H508.028H510.971V91.4607V86.7768C510.971 76.1502 514.045 70.0285 517.977 66.5138C521.974 62.9411 527.353 61.617 532.785 61.617C536.782 61.617 542.36 61.8994 546.777 64.3771C548.916 65.5769 550.763 67.2835 552.049 69.7661C553.344 72.2665 554.166 75.7416 553.934 80.6147L553.932 80.6426L553.931 80.6706C553.632 91.1518 548.517 98.0938 539.512 104.588C534.955 107.874 529.479 110.986 523.211 114.339C521.142 115.445 518.981 116.582 516.746 117.757C512.274 120.108 507.504 122.615 502.581 125.357ZM224.863 126.59C224.863 174.324 238.419 205.28 257.823 224.293C277.195 243.275 302.012 249.976 323.825 249.976C346.129 249.976 371.036 243.282 390.375 224.291C409.74 205.272 423.123 174.314 423.123 126.59C423.123 79.1942 409.737 48.3219 390.375 29.3067C371.041 10.3196 346.137 3.53857 323.825 3.53857C302.004 3.53857 277.191 10.3264 257.823 29.3045C238.422 48.3142 224.863 79.1831 224.863 126.59ZM323.825 192.566C316.343 192.566 310.635 190.367 306.193 186.741C301.703 183.077 298.325 177.804 295.83 171.399C290.815 158.518 289.632 141.758 289.632 126.59C289.632 111.591 290.814 94.9151 295.829 82.0765C298.323 75.6917 301.701 70.4283 306.192 66.7681C310.634 63.1473 316.343 60.9478 323.825 60.9478C331.399 60.9478 337.175 63.1522 341.663 66.7767C346.199 70.4388 349.604 75.7023 352.117 82.0839C357.171 94.9185 358.353 111.59 358.353 126.59C358.353 141.759 357.171 158.514 352.116 171.391C349.603 177.794 346.197 183.067 341.662 186.734C337.174 190.362 331.399 192.566 323.825 192.566Z" stroke="white" stroke-width="5.88672"/>
</g>
</g>
</g>
</g>
<defs>
<clipPath id="clip0_1_320">
<rect width="624" height="254.11" fill="white" transform="translate(0 0.949707)"/>
</clipPath>
<clipPath id="clip1_1_320">
<rect width="624" height="254.11" fill="white" transform="translate(0 0.949707)"/>
</clipPath>
<clipPath id="clip2_1_320">
<rect width="623.992" height="254.11" fill="white" transform="translate(0.00390625 0.949707)"/>
</clipPath>
</defs>
</svg>
