<svg width="624" height="255" viewBox="0 0 624 255" fill="none" xmlns="http://www.w3.org/2000/svg">
<g clip-path="url(#clip0_1_305)">
<g clip-path="url(#clip1_1_305)">
<g clip-path="url(#clip2_1_305)">
<mask id="mask0_1_305" style="mask-type:luminance" maskUnits="userSpaceOnUse" x="0" y="0" width="624" height="255">
<path d="M623.996 0.839844H0.00390625V254.95H623.996V0.839844Z" fill="white"/>
</mask>
<g mask="url(#mask0_1_305)">
<path d="M623.996 0.839844H0.00390625V254.95H623.996V0.839844Z" fill="#EAEAEA"/>
<path d="M500.65 103.655C516.507 103.655 537.097 103.48 553.244 90.889V244.908V247.851H556.187H618.081H621.024V244.908V10.7151V7.7718H618.081H556.187H554.081L553.402 9.76403C548.882 23 542.54 31.3525 534.08 36.9009C525.525 42.5128 514.516 45.4525 500.276 47.2739L497.706 47.6026V50.1934V100.712V103.655H500.65ZM284.358 127.811C284.358 175.547 297.914 206.502 317.318 225.515C336.69 244.498 361.507 251.197 383.321 251.197C405.623 251.197 430.531 244.505 449.87 225.513C469.235 206.494 482.618 175.536 482.618 127.811C482.618 80.4164 469.232 49.544 449.87 30.5289C430.536 11.5418 405.631 4.76074 383.321 4.76074C361.499 4.76074 336.685 11.5485 317.318 30.5267C297.917 49.5363 284.358 80.4052 284.358 127.811ZM383.321 193.788C375.838 193.788 370.129 191.589 365.688 187.964C361.197 184.299 357.82 179.026 355.325 172.62C350.31 159.74 349.128 142.981 349.128 127.811C349.128 112.813 350.309 96.1373 355.324 83.2987C357.818 76.9139 361.196 71.6505 365.687 67.9903C370.129 64.3695 375.838 62.17 383.321 62.17C390.894 62.17 396.67 64.3743 401.158 67.9988C405.694 71.661 409.099 76.9245 411.612 83.3061C416.666 96.1407 417.848 112.812 417.848 127.811C417.848 142.981 416.666 159.736 411.611 172.613C409.098 179.016 405.692 184.289 401.157 187.955C396.669 191.584 390.894 193.788 383.321 193.788Z" stroke="white" stroke-width="5.88672"/>
</g>
</g>
</g>
</g>
<defs>
<clipPath id="clip0_1_305">
<rect width="624" height="254.11" fill="white" transform="translate(0 0.839844)"/>
</clipPath>
<clipPath id="clip1_1_305">
<rect width="624" height="254.11" fill="white" transform="translate(0 0.839844)"/>
</clipPath>
<clipPath id="clip2_1_305">
<rect width="623.992" height="254.11" fill="white" transform="translate(0.00390625 0.839844)"/>
</clipPath>
</defs>
</svg>
