<svg width="624" height="255" viewBox="0 0 624 255" fill="none" xmlns="http://www.w3.org/2000/svg">
<g clip-path="url(#clip0_1_333)">
<g clip-path="url(#clip1_1_333)">
<g clip-path="url(#clip2_1_333)">
<mask id="mask0_1_333" style="mask-type:luminance" maskUnits="userSpaceOnUse" x="0" y="0" width="624" height="255">
<path d="M623.996 0.0600586H0.00390625V254.17H623.996V0.0600586Z" fill="white"/>
</mask>
<g mask="url(#mask0_1_333)">
<path d="M623.996 0.0600586H0.00390625V254.17H623.996V0.0600586Z" fill="#EAEAEA"/>
<path d="M432.621 158.779H429.697L429.677 161.702C429.508 187.758 435.977 210.025 451.072 225.777C466.186 241.551 489.486 250.313 521.949 250.313C552.542 250.313 577.077 242.41 594.032 229.021C611.035 215.591 620.242 196.764 620.242 175.439C620.242 153.442 611.203 139.077 600.567 130.264C594.771 125.463 588.503 122.313 583 120.455C596.478 113.802 612.213 98.4153 612.213 70.052C612.213 49.7118 603.49 33.0373 588.206 21.531C573.003 10.0855 551.495 3.87646 525.964 3.87646C496.318 3.87646 474.057 12.1498 459.216 27.1665C444.383 42.1745 437.372 63.5036 437.372 88.7875V91.7308H440.316H497.86H500.722L500.803 88.8704C501.119 77.6689 504.862 71.1768 509.396 67.4275C514.022 63.6034 519.886 62.2894 524.96 62.2894C529.928 62.2894 535.377 63.4655 539.495 66.3555C543.464 69.14 546.439 73.6699 546.439 81.0926C546.439 84.3739 546.232 88.9159 542.966 92.7268C539.743 96.4863 532.903 100.23 517.934 100.23H504.552H501.608V103.174V146.667V149.61H504.552H520.611C534.124 149.61 541.8 152.63 546.097 156.572C550.337 160.462 551.792 165.72 551.792 171.424C551.792 179.865 548.038 184.965 542.877 188.105C537.53 191.358 530.522 192.569 524.291 192.569C517.681 192.569 510.145 191.424 504.277 187.153C498.577 183.004 493.937 175.524 493.778 161.688L493.745 158.779H490.835H432.621ZM216.368 126.928C216.368 174.662 229.924 205.618 249.328 224.63C268.7 243.613 293.518 250.313 315.331 250.313C337.635 250.313 362.541 243.62 381.88 224.629C401.246 205.61 414.628 174.651 414.628 126.928C414.628 79.5321 401.243 48.6598 381.88 29.6447C362.546 10.6575 337.643 3.87646 315.331 3.87646C293.51 3.87646 268.696 10.6643 249.328 29.6423C229.927 48.652 216.368 79.521 216.368 126.928ZM315.331 192.904C307.849 192.904 302.141 190.704 297.698 187.079C293.209 183.415 289.831 178.142 287.336 171.736C282.32 158.855 281.138 142.096 281.138 126.928C281.138 111.928 282.32 95.253 287.335 82.4144C289.829 76.0297 293.207 70.7662 297.697 67.106C302.14 63.4853 307.849 61.2857 315.331 61.2857C322.904 61.2857 328.68 63.4901 333.169 67.1145C337.704 70.7767 341.11 76.0403 343.622 82.4219C348.676 95.2564 349.858 111.927 349.858 126.928C349.858 142.097 348.676 158.852 343.621 171.728C341.109 178.131 337.702 183.405 333.168 187.071C328.679 190.699 322.904 192.904 315.331 192.904Z" stroke="white" stroke-width="5.88672"/>
</g>
</g>
</g>
</g>
<defs>
<clipPath id="clip0_1_333">
<rect width="624" height="254.11" fill="white" transform="translate(0 0.0600586)"/>
</clipPath>
<clipPath id="clip1_1_333">
<rect width="624" height="254.11" fill="white" transform="translate(0 0.0600586)"/>
</clipPath>
<clipPath id="clip2_1_333">
<rect width="623.992" height="254.11" fill="white" transform="translate(0.00390625 0.0600586)"/>
</clipPath>
</defs>
</svg>
