<svg width="15" height="221" viewBox="0 0 15 221" fill="none" xmlns="http://www.w3.org/2000/svg">
<g clip-path="url(#clip0_1_231)">
<g clip-path="url(#clip1_1_231)">
<path fill-rule="evenodd" clip-rule="evenodd" d="M5.95814 211.986C10.5423 212.078 14.2301 215.823 14.2301 220.429C14.2301 220.473 14.2298 220.516 14.2291 220.56L15.9885 220.56V0.662796L14.228 0.663467C14.2294 0.72699 14.2302 0.791168 14.2302 0.855362C14.2302 5.46199 10.5423 9.20668 5.95814 9.29897V19.8583C10.5423 19.9506 14.2302 23.6959 14.2302 28.3019C14.2302 32.9085 10.5423 36.6532 5.95814 36.7455V47.3055C10.5423 47.3978 14.2302 51.1424 14.2302 55.7491C14.2302 60.355 10.5423 64.1004 5.95814 64.1926V74.752C10.5423 74.8443 14.2302 78.5889 14.2302 83.1956C14.2302 87.8015 10.5423 91.5469 5.95814 91.6391V102.199C10.5423 102.291 14.2302 106.036 14.2302 110.643C14.2302 115.249 10.5423 118.993 5.95814 119.086V129.646C10.5423 129.738 14.2302 133.483 14.2302 138.089C14.2302 142.695 10.5423 146.44 5.95814 146.532V157.092C10.5423 157.185 14.2302 160.93 14.2302 165.536C14.2302 170.142 10.5423 173.887 5.95814 173.979V184.539C10.5423 184.631 14.2302 188.376 14.2302 192.982C14.2302 197.589 10.5423 201.334 5.95814 201.426V211.986Z" fill="white"/>
</g>
</g>
<defs>
<clipPath id="clip0_1_231">
<rect width="15" height="220" fill="white" transform="matrix(-1 0 0 -1 15 220.56)"/>
</clipPath>
<clipPath id="clip1_1_231">
<rect width="10.6991" height="220" fill="white" transform="matrix(-1 0 0 -1 16 220.56)"/>
</clipPath>
</defs>
</svg>
